PathFileType	4	(X/Y/Z)	s05c0101.trc
DataRate	CameraRate	NumFrames	NumMarkers	Units	OrigDataRate	OrigDataStartFrame	OrigNumFrames
200	200	7	50	mm	200	1250	2000
Frame#	Time	racr			lacr			c7			jug			rlel			rdr			llel			ldr			s2			lic			ric			lasi			rasi			rpsi			lpsi			rgt			lgt			rth1			rth2			rth3			rth4			rlfc			rmfc			rsh1			rsh2			rsh3			rsh4			rlmal			rmmal			rcal			rtoe			rmt5			lth1			lth2			lth4			lth3			llfc			lmfc			lsh1			lsh2			lsh3			lsh4			llmal			lmmal			lcal			ltoe			lmt5			SBIKE			LBIKE			RBIKE			
		X1	Y1	Z1	X2	Y2	Z2	X3	Y3	Z3	X4	Y4	Z4	X5	Y5	Z5	X6	Y6	Z6	X7	Y7	Z7	X8	Y8	Z8	X9	Y9	Z9	X10	Y10	Z10	X11	Y11	Z11	X12	Y12	Z12	X13	Y13	Z13	X14	Y14	Z14	X15	Y15	Z15	X16	Y16	Z16	X17	Y17	Z17	X18	Y18	Z18	X19	Y19	Z19	X20	Y20	Z20	X21	Y21	Z21	X22	Y22	Z22	X23	Y23	Z23	X24	Y24	Z24	X25	Y25	Z25	X26	Y26	Z26	X27	Y27	Z27	X28	Y28	Z28	X29	Y29	Z29	X30	Y30	Z30	X31	Y31	Z31	X32	Y32	Z32	X33	Y33	Z33	X34	Y34	Z34	X35	Y35	Z35	X36	Y36	Z36	X37	Y37	Z37	X38	Y38	Z38	X39	Y39	Z39	X40	Y40	Z40	X41	Y41	Z41	X42	Y42	Z42	X43	Y43	Z43	X44	Y44	Z44	X45	Y45	Z45	X46	Y46	Z46	X47	Y47	Z47	X48	Y48	Z48	X49	Y49	Z49	X50	Y50	Z50	
1250	6.2500	450.872636	1313.320944	-178.334654	437.920686	1329.914256	-417.873900	424.509343	1385.884836	-295.157466	363.343991	1236.172814	-286.230908	502.484620	1081.032665	-24.854040	691.048300	921.414149	-90.714215	456.320631	1082.224884	-569.629134	670.850917	935.262872	-481.260728	-134.645767	1165.321315	-268.858888	-0.020581	1195.962455	-418.178057	13.828354	1192.613794	-133.374652	55.784224	1144.711288	-388.825733	56.793366	1138.084895	-164.444488	-103.466246	1216.901962	-226.171764	-105.524887	1220.896725	-312.560449	-12.468043	1060.911930	-107.200237	-51.683132	1083.602931	-442.727643	88.629678	1000.633278	-95.453160	173.270647	972.568997	-95.968392	230.205488	905.345753	-99.864498	192.029562	1001.762440	-109.324352	336.528393	806.168205	-126.040303	323.368696	802.001214	-235.378810	248.011138	743.802865	-98.652582	203.579294	668.467030	-110.821978	130.443754	622.881527	-113.796509	226.792824	649.150537	-135.371528	42.080297	529.545305	-118.398710	66.273973	533.856462	-201.072131	-28.760780	554.915085	-165.816908	151.144209	319.245490	-155.908882	67.019385	381.353286	-93.438122	51.712220	977.514753	-463.809235	129.948710	941.932539	-461.908110	154.430128	968.699374	-449.615177	180.642563	867.337817	-461.912812	278.368897	757.001191	-430.952653	268.348428	740.580232	-325.199372	248.935359	631.659820	-456.246445	262.221601	545.975142	-444.677547	230.409436	463.359066	-444.706773	291.974207	545.413753	-419.740873	221.370822	341.886015	-439.260549	243.807351	367.216871	-361.873178	162.862496	299.922056	-396.663319	457.305835	289.721074	-406.283969	349.380281	259.604270	-468.107323	-264.475452	895.385681	-287.241341	-53.423306	78.833165	-475.201740	-53.445766	79.106440	-77.525315	
1251	6.2550	450.819589	1314.528490	-176.829740	439.132736	1330.328060	-415.565642	425.424591	1386.715012	-293.475171	363.483360	1237.330649	-284.526603	502.976349	1081.597141	-24.579839	691.420931	921.501939	-90.616560	458.682231	1083.980312	-569.765677	671.636123	935.142896	-480.885977	-133.157235	1165.872684	-272.340164	2.957710	1195.704029	-420.598755	13.313374	1194.628350	-135.580830	58.210904	1144.164629	-390.562648	57.054664	1139.903943	-166.081883	-103.193461	1217.862931	-230.102370	-104.060037	1221.129216	-316.437606	-11.339119	1064.332927	-108.765382	-49.460560	1082.427168	-444.622125	90.584280	1006.121072	-96.093502	175.836979	979.916615	-96.551479	234.348718	913.939611	-99.704234	193.894020	1009.349893	-110.258083	342.244622	816.745611	-125.252559	329.834909	811.610193	-234.826581	253.921152	753.998190	-98.328879	210.092501	678.970572	-110.247015	136.052541	633.389557	-113.919745	233.208248	659.424266	-134.717085	47.696532	540.010501	-118.556242	72.266618	544.181229	-201.168008	-23.409268	566.031891	-166.801486	155.089422	328.755564	-155.966610	71.508894	391.501216	-93.618703	52.297631	974.502665	-465.418058	129.516865	936.746844	-463.135631	154.701481	962.859910	-450.829346	178.090521	860.800385	-463.038716	272.656667	747.958232	-431.511631	261.721501	731.662919	-326.037700	242.929275	622.201751	-457.350835	257.218985	536.769913	-445.577531	226.478724	453.721547	-445.541901	287.037212	536.549268	-420.803514	218.699699	333.572666	-440.107330	241.051579	358.902557	-362.701229	159.811948	292.224708	-397.691245	454.166313	278.480032	-405.828823	346.192691	249.672873	-468.113610	-264.272106	895.484451	-287.144313	-53.345960	78.850880	-475.218232	-53.402473	79.150289	-77.529440	
1252	6.2600	450.758317	1315.980450	-175.372916	440.353526	1330.975880	-413.044912	426.368148	1387.715732	-292.084485	363.617262	1238.688558	-282.943385	503.614329	1082.295675	-24.525459	691.819087	921.602791	-90.640016	461.193233	1085.681936	-569.829125	672.608375	934.981685	-480.468854	-131.953098	1166.340091	-276.041463	6.010547	1195.456417	-423.094200	12.571254	1196.425888	-137.845627	60.519444	1143.499147	-392.061613	57.250854	1141.983525	-167.534803	-102.835450	1218.890633	-234.046346	-102.407187	1221.405275	-320.194528	-10.202104	1068.048525	-110.276336	-47.301146	1081.462317	-446.397737	92.477035	1011.834396	-96.642659	178.194970	987.442550	-97.141831	238.145445	922.760722	-99.597952	195.613000	1017.137424	-111.231791	347.998644	827.272056	-124.646067	336.077463	821.405801	-234.356407	259.654855	764.324264	-98.039428	215.847115	689.349554	-109.943242	141.750954	643.898707	-113.895010	239.148021	669.759617	-134.084772	53.516106	550.294727	-118.703657	77.756846	554.217747	-201.070636	-16.299092	576.652894	-166.057620	159.811279	338.327910	-155.939846	76.409012	401.494073	-93.719712	52.735868	971.713441	-467.004687	128.840972	931.792261	-464.380577	154.691308	957.141796	-451.992078	175.231268	854.490507	-464.057526	266.627640	738.978262	-432.020029	254.955242	723.095061	-326.878761	236.656866	613.129837	-458.743799	251.679081	527.915993	-446.674881	221.930903	444.453102	-446.450525	282.111196	528.416982	-422.792163	215.508603	325.462944	-440.935233	237.975656	351.060821	-363.656826	156.206320	285.178731	-398.474242	450.489593	267.291280	-405.392694	342.294246	239.731876	-468.105066	-264.157307	895.540742	-287.158015	-53.303573	78.922587	-475.226506	-53.374483	79.172516	-77.522960	
1253	6.2650	450.743097	1317.475943	-174.131664	441.801514	1331.610246	-411.444125	427.286208	1388.869304	-290.863569	363.994482	1240.076553	-281.748682	504.527530	1083.168204	-24.638835	692.248468	921.709915	-90.730189	463.909921	1087.205351	-569.720108	673.591237	934.709620	-480.098352	-130.411945	1167.064151	-279.314092	9.135447	1195.260070	-425.378220	11.762928	1198.375732	-140.204314	62.986975	1143.155470	-393.568392	57.434519	1144.188525	-169.003635	-102.501723	1220.166416	-237.957201	-100.406101	1221.759792	-324.387984	-9.105659	1072.010208	-111.757815	-45.142804	1080.627888	-448.118676	94.192162	1017.734136	-97.306526	180.349192	995.146542	-97.781262	241.737363	931.865958	-99.228941	197.131801	1024.979347	-112.229901	353.468494	837.880409	-124.115268	342.133144	831.187646	-233.898759	265.258121	774.858659	-97.819974	221.605054	699.781799	-109.595752	147.473481	654.299787	-113.767407	244.985446	679.957111	-133.511222	59.331214	560.127467	-118.887175	83.867816	563.980572	-201.024568	-10.513609	586.470410	-166.485301	165.139548	347.826224	-156.043831	82.007499	411.172134	-94.373438	52.960680	969.077326	-468.502900	127.874347	927.005591	-465.519238	154.389815	951.596462	-453.105229	171.962885	848.264094	-464.978097	260.373192	730.390197	-432.548794	247.939353	715.030079	-327.860329	230.057291	604.604692	-459.923625	245.651379	519.710692	-447.711937	216.637729	435.882465	-447.354734	276.313825	520.400380	-424.178878	211.697685	317.727657	-441.648417	234.169571	343.360764	-364.389218	152.057020	278.312040	-399.378732	446.118218	256.557999	-404.898887	337.880962	230.375738	-468.104894	-264.028945	895.621441	-287.227758	-53.266879	78.947749	-475.203177	-53.332857	79.198997	-77.509127	
1254	6.2700	450.783353	1319.070521	-172.933692	443.101696	1332.287987	-409.991342	428.191262	1390.039905	-289.758560	364.334596	1241.504605	-280.502171	505.453386	1084.213699	-24.843672	692.679264	921.851841	-90.814310	466.693534	1088.775739	-569.481836	674.567516	934.477649	-479.662690	-129.313567	1167.804807	-282.778840	12.158821	1195.086622	-427.605904	10.922361	1200.281368	-142.393151	65.535148	1142.941692	-394.922508	57.733306	1146.412227	-170.843489	-102.246915	1221.276320	-241.836658	-98.023189	1221.967310	-328.361637	-8.105486	1076.177615	-113.105157	-43.013551	1079.907648	-449.754558	95.739753	1023.665749	-98.181200	182.359792	1002.870715	-98.498009	245.015171	940.972437	-99.064789	198.459294	1032.931610	-113.349943	358.647585	848.707585	-123.654127	347.807281	841.359289	-233.443917	270.625769	785.399115	-97.820753	226.485367	710.012371	-109.693139	153.291510	664.510246	-113.564913	250.234238	690.122388	-133.209225	65.541248	569.543417	-118.847192	90.187378	573.630158	-200.980177	-4.127592	596.250116	-166.456540	171.168872	357.235366	-156.145315	88.052687	420.496678	-94.243201	52.911068	966.568985	-470.084552	126.622354	922.442938	-466.974064	153.796028	946.277695	-454.207923	168.443476	842.519676	-465.873412	253.572485	722.455495	-433.386643	239.768741	707.881595	-327.980191	223.529761	596.953156	-461.425109	239.400990	512.136346	-448.609909	210.668560	428.126031	-448.219119	270.110788	512.877546	-425.374586	207.419050	310.544208	-442.211380	229.827486	336.052475	-364.898566	147.392039	272.025802	-400.310205	441.201797	245.959184	-404.176476	332.970114	221.511025	-467.986154	-263.930019	895.702477	-287.259595	-53.220500	79.003874	-475.183413	-53.313486	79.234216	-77.512128	
1255	6.2750	450.822023	1320.811047	-171.769979	444.486865	1333.114122	-408.784088	429.074133	1391.252047	-288.801802	364.847315	1242.897221	-279.329122	506.413000	1085.477761	-25.083703	693.071417	922.037508	-90.940558	469.474150	1090.233255	-569.159471	675.611206	934.232609	-479.237813	-128.705755	1168.880371	-285.562136	15.192681	1194.945247	-429.664741	10.075923	1202.110277	-144.103331	68.021571	1142.872343	-396.053159	57.868897	1148.616477	-172.101927	-101.817991	1222.384366	-245.567080	-96.679455	1222.559636	-331.877971	-7.218051	1080.461445	-114.455262	-40.925602	1079.282977	-451.270410	96.899921	1029.638053	-99.238985	184.079468	1010.681610	-99.225690	248.079464	950.061001	-99.004073	199.775313	1041.298056	-114.167623	363.602176	859.545378	-123.334417	353.122945	851.686605	-232.487121	275.991381	795.846068	-97.660035	232.133226	720.305259	-109.392237	159.153126	674.501332	-113.363447	256.006028	700.327239	-132.748914	71.818733	578.764930	-118.749985	96.579675	582.771026	-200.818852	2.167456	605.256523	-166.406284	177.729262	366.448949	-156.367975	94.614800	429.536938	-94.446827	52.557945	964.213881	-471.350343	125.277052	918.505600	-468.624716	152.806260	941.345398	-455.411838	164.657428	837.080321	-466.712403	246.762395	715.050407	-433.991599	233.281539	701.240720	-328.721907	216.954588	590.143557	-462.299850	232.912259	505.279230	-449.608297	204.270452	421.262892	-449.034343	263.735969	506.028357	-426.386194	202.724947	303.867905	-442.793988	225.173532	329.210784	-365.444498	142.321014	266.253827	-401.187792	435.684237	235.749858	-403.622280	327.445137	212.922751	-467.961066	-263.737670	895.729358	-287.302867	-53.205104	79.041173	-475.189189	-53.285607	79.264566	-77.508346	
1256	6.2800	450.865489	1322.555131	-170.927499	445.857378	1334.004827	-407.768959	429.926534	1392.453721	-288.003911	365.412380	1244.239596	-278.393856	507.340419	1086.822970	-25.336290	693.370320	922.259297	-91.178611	472.178098	1091.780314	-568.861824	676.572978	933.943784	-478.981147	-127.002287	1169.615150	-289.643494	18.270821	1194.683869	-431.320855	9.394802	1204.104212	-146.399573	70.319635	1142.731735	-396.999692	58.072823	1150.649424	-173.605603	-101.218166	1223.300921	-249.203602	-95.191660	1223.421294	-335.511682	-6.398574	1084.729181	-115.844020	-38.963144	1078.756183	-452.657048	98.011164	1035.560442	-100.406763	185.578262	1018.442857	-100.031088	250.805796	959.161811	-98.965371	200.563094	1049.175569	-115.462722	368.348028	870.282070	-123.062366	358.250217	861.833441	-232.513567	281.512562	806.013186	-97.478195	237.766250	730.340364	-109.134216	164.898314	684.164381	-113.351375	261.169015	710.602520	-132.616779	78.199716	587.384648	-118.747738	102.291851	591.514449	-200.938677	8.499129	613.667341	-166.386893	184.783965	375.538390	-156.638198	101.481335	438.127824	-94.663261	51.906875	962.116363	-472.347470	123.406812	914.476173	-469.573415	151.491592	936.557516	-456.544684	160.635518	831.994968	-467.531494	239.858121	708.493631	-434.602806	225.289313	693.926985	-329.716467	210.279669	583.992417	-462.800483	226.361897	499.156322	-450.438960	197.639804	415.190478	-449.805534	257.238178	499.897867	-427.283511	197.465130	297.692322	-443.304540	220.126683	323.027569	-366.020797	136.773833	261.166991	-401.816746	429.695977	225.978510	-403.240400	321.298437	204.738885	-467.967222	-263.812119	895.831827	-287.273298	-53.184206	79.103588	-475.189856	-53.277000	79.333059	-77.513062	
